<svg xmlns="http://www.w3.org/2000/svg" width="60.497" height="57.786" viewBox="0 0 60.497 57.786"><defs><style>.a,.b{fill:none;stroke:#000;stroke-linecap:round;stroke-linejoin:round;}.a{stroke-width:4.445px;}.b{stroke-width:4.445px;}</style></defs><g transform="translate(30.249 28.893)"><g transform="translate(-28 -26.67)"><path class="a" d="M52.717,48.487H8.444A5.927,5.927,0,0,1,2.7,41.2L9.837,11.564A5.927,5.927,0,0,1,15.5,7H45.664a5.927,5.927,0,0,1,5.66,4.564L58.377,41.2a5.927,5.927,0,0,1-5.66,7.29Z" transform="translate(-2.536 4.854)"/><path class="b" d="M7.56,14.854,10.227,9.46A11.854,11.854,0,0,1,20.717,3h0a11.854,11.854,0,0,1,10.49,6.46l2.667,5.393" transform="translate(7.327 -3)"/></g></g></svg>