<?xml version="1.0" encoding="utf-8"?>
<!-- Generator: Adobe Illustrator 25.0.1, SVG Export Plug-In . SVG Version: 6.00 Build 0)  -->
<svg version="1.1" id="Layer_1" xmlns="http://www.w3.org/2000/svg" xmlns:xlink="http://www.w3.org/1999/xlink" x="0px" y="0px"
	 viewBox="0 0 827.51 253.55" style="enable-background:new 0 0 827.51 253.55;" xml:space="preserve">
<style type="text/css">
	.st0{fill:#FFFFFF;}
</style>
<g>
	<path class="st0" d="M339.22,36.29c-0.58-0.05-0.81-0.1-1.03-0.1c-13.21,0-26.4,0-39.61-0.05c-1.09,0-1.74,0.37-2.29,1.34
		c-3.64,6.46-7.34,12.88-11.03,19.34c-7.72,13.45-15.46,26.91-23.16,40.38c-6.51,11.41-12.99,22.85-19.51,34.25
		c-5.25,9.19-10.56,18.36-15.81,27.57c-6.6,11.55-13.18,23.14-19.78,34.68c-4.24,7.44-8.47,14.86-12.71,22.27
		c-0.27,0.46-0.47,0.96-0.81,1.66c0.82,0.05,1.37,0.1,1.91,0.1c12.86,0.02,25.72,0,38.58,0.05c1.26,0.02,1.97-0.42,2.56-1.48
		c2.21-3.95,4.51-7.86,6.75-11.8c5.77-10.14,11.52-20.28,17.32-30.41c6.45-11.3,12.97-22.59,19.42-33.9
		c6.69-11.69,13.33-23.42,20.02-35.13c6.57-11.49,13.17-22.99,19.75-34.48c6.18-10.81,12.35-21.64,18.53-32.46
		C338.6,37.59,338.84,37.04,339.22,36.29 M131.07,253.04c0.32-0.7,0.56-1.35,0.89-1.91c5.97-10.43,11.95-20.84,17.91-31.24
		c5.81-10.19,11.57-20.38,17.39-30.56c5.97-10.42,11.96-20.83,17.91-31.24c5.82-10.18,11.6-20.38,17.4-30.54
		c4.66-8.17,9.37-16.31,14.03-24.47c6.63-11.61,13.24-23.22,19.84-34.83c5.67-9.94,11.32-19.89,16.96-29.83
		c0.31-0.56,0.47-1.21,0.82-2.08c-1.19-0.06-2.08-0.14-2.96-0.14c-31.11-0.03-62.22,0-93.32-0.03c-35.93,0-71.86-0.01-107.78-0.03
		c-15.98,0-31.96-0.01-47.95-0.01H0c0.18-0.59,0.26-1.01,0.43-1.38c4.13-9.07,8.25-18.14,12.38-27.21c0.87-1.89,1.85-3.76,2.6-5.71
		c0.45-1.19,1.12-1.49,2.29-1.49c6.58,0.05,13.15,0.03,19.72,0.03c3.8,0,7.6,0,11.39-0.03c8.61-0.08,17.22-0.24,25.84-0.26
		c16.31-0.04,32.63-0.16,48.95,0.02c43,0.49,86.01,0.05,129.02,0.17c48.73,0.1,97.47,0.08,146.21,0.1c0.87,0,1.81-0.23,2.75,0.52
		c-0.29,0.62-0.51,1.24-0.83,1.8c-7.29,12.81-14.59,25.6-21.9,38.38c-7.05,12.34-14.12,24.68-21.17,37.01
		c-7.15,12.5-14.3,24.98-21.44,37.46c-7.7,13.48-15.4,26.95-23.1,40.43c-7.96,13.97-15.92,27.95-23.89,41.92
		c-3.43,6-6.86,12-10.3,17.99c-0.3,0.54-0.55,1.09-0.92,1.81c0.57,0.1,0.92,0.18,1.29,0.2c0.67,0.03,1.36,0.01,2.04,0.01h542.97
		c0.73,0,1.48-0.05,2.2,0.04c0.87,0.08,1.16,0.59,0.92,1.42c-0.1,0.32-0.27,0.62-0.41,0.94c-4.04,8.74-8.07,17.48-12.11,26.22
		c-0.87,1.9-1.77,3.79-2.59,5.72c-0.39,0.89-0.94,1.37-1.94,1.3c-0.45-0.02-0.91-0.01-1.36-0.01c-224.9,0-449.82,0-674.72-0.01
		C133.31,253.51,132.26,253.76,131.07,253.04"/>
	<path class="st0" d="M491.4,151.98c0.48,0.07,0.76,0.15,1.05,0.15c6.85-0.03,13.7-0.03,20.56-0.05c2.57-0.02,5.04-0.7,7.46-1.49
		c5.37-1.77,9.73-5.03,13.41-9.23c2.22-2.54,3.96-5.38,5.17-8.54c1.69-4.42,2.32-8.98,1.98-13.69c-0.25-3.76-1.24-7.33-2.87-10.74
		c-1.84-3.92-4.56-7.15-7.78-9.97c-5.12-4.47-11.06-7.05-17.91-7.15c-6.4-0.11-12.81-0.05-19.21-0.05c-0.6,0-1.2,0.11-1.86,0.18
		V151.98z M519.57,157.56c2.73,4.68,5.7,8.92,8.48,13.28c2.8,4.41,5.65,8.77,8.48,13.13c2.83,4.36,5.65,8.69,8.64,13.25
		c-0.71,0.11-1.12,0.2-1.55,0.22c-1.41,0.02-2.83-0.07-4.25,0.02c-1.23,0.08-1.99-0.39-2.63-1.41c-1.86-2.99-3.77-5.93-5.67-8.89
		c-4.11-6.38-8.21-12.76-12.32-19.13c-1.75-2.72-3.5-5.41-5.18-8.16c-0.65-1.08-1.41-1.57-2.73-1.56
		c-5.84,0.08-11.67,0.05-17.52,0.05h-1.02c-0.59,0.05-0.93,0.36-0.97,0.96c-0.03,0.51-0.03,1.02-0.03,1.53v34.34v2.4
		c-2.06,0.24-4,0.1-6.15,0.1c-0.04-0.73-0.11-1.38-0.11-2.04v-30.42V87.71c0-2.9-0.09-2.75,2.81-2.72c8,0,15.98,0.12,23.97-0.05
		c5.2-0.11,9.98,1.21,14.55,3.42c6.89,3.32,12.21,8.42,16.13,14.89c3.2,5.27,4.7,11.1,4.88,17.29c0.13,4.87-0.56,9.61-2.31,14.14
		c-1.74,4.62-4.33,8.71-7.83,12.2c-2.18,2.17-4.33,4.32-6.96,5.94c-2.72,1.67-5.52,3.14-8.58,4.06
		C521.08,157.04,520.47,157.26,519.57,157.56"/>
	<path class="st0" d="M457.39,85.1h6.3v1.77c0,25.94,0.02,51.9-0.04,77.84c0,1.79-0.29,3.62-0.72,5.37
		c-1.14,4.41-2.85,8.6-5.54,12.32c-5.07,7.05-11.51,12.31-19.97,14.72c-2.77,0.8-5.59,1.37-8.52,1.34
		c-3.62-0.01-7.22-0.02-10.79-0.89c-5.2-1.24-9.94-3.52-14.02-6.94c-4.14-3.46-7.74-7.44-10.19-12.37
		c-2.26-4.54-3.62-9.27-3.71-14.34c-0.13-6.96-0.05-13.94-0.05-20.89c-0.01-15.42-0.01-30.83-0.01-46.25v-9.84v-1.87
		c2.09-0.19,4.04-0.1,6.18-0.05c0.02,0.72,0.07,1.38,0.07,2.04c0.01,18.19,0.01,36.37,0.01,54.55c0,6.92-0.01,13.83,0,20.73
		c0.01,7.94,2.95,14.64,8.35,20.37c3.19,3.39,6.84,6.13,11.27,7.65c10.65,3.62,20.71,2.47,29.7-4.49c5.38-4.16,9.11-9.61,10.8-16.28
		c0.55-2.18,0.88-4.42,0.88-6.71c-0.03-25.15-0.01-50.3-0.01-75.47V85.1z"/>
	<path class="st0" d="M112.59,85.05h5.95c0.05,0.57,0.11,1.07,0.11,1.54c0.01,26.31,0,52.6,0.02,78.89c0,2.32-0.66,4.48-1.29,6.65
		c-2.69,9.07-8.46,15.9-16.22,21.08c-3.56,2.38-7.55,3.77-11.77,4.66c-3.95,0.82-7.93,0.82-11.83,0.45
		c-5.98-0.57-11.55-2.64-16.5-6.19c-5.75-4.12-10.19-9.32-13.02-15.78c-1.26-2.87-2.06-5.86-2.5-8.98
		c-0.51-3.62-0.47-7.23-0.47-10.85c-0.01-22.72-0.03-45.45-0.03-68.17v-3.32c2.22-0.32,4.21-0.26,6.41-0.08
		c0.05,0.99,0.13,1.87,0.13,2.77c0,20.38-0.01,40.79-0.01,61.19c0,4.98,0.04,9.97,0.02,14.96c0,4.24,1.17,8.16,3.15,11.85
		c3.34,6.23,8.21,10.93,14.61,13.93c3.3,1.57,6.8,2.43,10.48,2.57c4.46,0.17,8.83-0.15,13.03-1.82c7.21-2.84,12.59-7.73,16.25-14.5
		c2.43-4.46,3.47-9.29,3.47-14.35c0.02-24.72,0.02-49.42,0.02-74.12V85.05z"/>
	<path class="st0" d="M691.89,192.25c4.9,0.29,10.39-2.5,12.93-5.17c1.21-1.27,1.25-1.32,0.23-2.66
		c-4.25-5.58-8.5-11.14-12.76-16.72c-0.86-1.12-1.13-1.21-2.39-0.44c-1.53,0.95-3.14,1.83-4.52,2.99c-1.54,1.31-2.98,2.78-4.22,4.37
		c-1.73,2.22-1.76,4.93-1.57,7.63c0.17,2.49,1.12,4.62,2.84,6.36C685.02,191.27,688.25,192.37,691.89,192.25 M688.39,162.91
		c-0.98-1.47-1.91-2.74-2.73-4.09c-1.21-1.92-2.11-3.95-2.22-6.32c-0.16-4.31,2.03-7.25,5.5-9.29c4.66-2.76,9.76-3.09,14.95-1.77
		c1.21,0.33,2.38,0.77,3.55,1.17c0.61,0.22,1.11,0.57,1.12,1.32v4.85c-1.47-0.48-2.8-0.77-4-1.37c-2.62-1.27-5.37-1.24-8.15-1.07
		c-1.11,0.06-2.25,0.26-3.29,0.62c-3.15,1.15-4.58,3.47-3.32,7.75c0.33,1.11,0.96,2.18,1.66,3.12c3.96,5.3,7.99,10.56,12,15.83
		c1.45,1.91,2.89,3.79,4.35,5.67c0.42,0.51,0.9,0.98,1.53,1.69c1.68-2.37,2.49-4.86,2.99-7.43c0.51-2.54,0.77-5.13,1.16-7.83h4.9
		c0.09,1.76,0.16,3.49-0.14,5.22c-0.81,4.68-2.63,8.99-4.97,13.1c-0.79,1.39-0.79,1.37,0.17,2.67c2.28,3.03,4.55,6.07,6.81,9.12
		c0.14,0.15,0.21,0.36,0.4,0.72c-2.08,0.24-4.04,0.2-5.97,0.05c-0.51-0.05-1.06-0.64-1.42-1.09c-1.14-1.42-2.19-2.89-3.27-4.34
		c-0.31-0.4-0.65-0.75-1.05-1.22c-0.46,0.35-0.86,0.56-1.16,0.86c-3.26,3.37-7.32,5.32-11.82,6.28c-1.92,0.4-3.95,0.24-5.93,0.28
		c-3.6,0.1-6.8-1.14-9.65-3.21c-3.04-2.19-5.5-4.96-6.32-8.75c-1.23-5.63-0.51-10.79,3.75-15.1c2.47-2.49,5.25-4.49,8.32-6.1
		C686.88,163.9,687.55,163.44,688.39,162.91"/>
	<path class="st0" d="M639.84,167.77c-0.45,0.3-0.72,0.4-0.92,0.6c-2.29,2.27-4.58,4.56-6.89,6.8c-0.64,0.64-0.62,1.42-0.62,2.22
		c0,5.72-0.01,11.44-0.01,17.17v2.11c-1.61,0-3.12,0.01-4.63-0.01c-0.54,0-0.82-0.3-0.86-0.84c-0.01-0.34-0.01-0.67-0.01-1.02
		c-0.02-17.05-0.02-34.11,0-51.16c0-0.52,0.04-0.99,0.07-1.65c1.8-0.24,3.5-0.15,5.42-0.06v8.89c0,3.01,0,6,0.01,9.02
		c0,2.91,0.01,5.83,0.03,8.74c0.14,0.07,0.26,0.13,0.4,0.19c0.47-0.44,0.96-0.86,1.41-1.31c5.44-5.46,10.87-10.93,16.31-16.38
		c2.72-2.73,5.45-5.44,8.15-8.2c0.74-0.74,1.51-1.12,2.55-1.07c1.13,0.07,2.27,0.01,3.39,0.04c0.42,0.01,0.84,0.12,1.64,0.25
		c-0.64,0.72-1.04,1.22-1.5,1.67c-6,6-12.02,12.02-18.03,18.03c-0.29,0.29-0.54,0.58-0.84,0.83c-0.64,0.59-0.52,1.12-0.05,1.78
		c2.64,3.75,5.23,7.53,7.87,11.28c4.45,6.37,8.91,12.71,13.35,19.06c0.31,0.44,0.57,0.91,1.05,1.67c-2.37,0-4.38,0.1-6.39-0.05
		c-0.54-0.03-1.12-0.69-1.49-1.2c-2.15-2.99-4.25-6.02-6.37-9.02c-3.87-5.53-7.74-11.04-11.62-16.55
		C640.86,169,640.38,168.45,639.84,167.77"/>
	<path class="st0" d="M569.4,197.38h-5.82V85.28c1.26-0.37,3.86-0.42,5.82-0.1V197.38z"/>
	<path class="st0" d="M727.09,142.07c2.15,0,3.84-0.11,5.51,0.06c0.61,0.05,1.31,0.67,1.72,1.21c1.06,1.39,1.99,2.89,2.97,4.35
		c3.93,5.88,7.85,11.76,11.79,17.65c0.31,0.47,0.7,0.86,1.16,1.41c0.4-0.45,0.72-0.74,0.96-1.1c3.2-4.81,6.38-9.63,9.58-14.44
		c1.82-2.73,3.72-5.42,5.52-8.16c0.58-0.91,1.29-1.34,2.38-1.26c1.54,0.12,3.13-0.14,4.91,0.26c-1.24,1.83-2.37,3.5-3.51,5.16
		c-5.3,7.7-10.6,15.4-15.93,23.07c-0.77,1.12-1.12,2.26-1.11,3.62c0.05,6.93,0.01,13.83,0,20.76v2.01c-1.64,0-3.1,0.01-4.56-0.01
		c-0.6,0-0.94-0.32-0.97-0.94c-0.03-0.46-0.04-0.91-0.04-1.36c0.01-6.58-0.03-13.16,0.05-19.71c0.02-2.05-0.52-3.72-1.7-5.37
		c-4.01-5.62-7.89-11.35-11.81-17.03c-1.93-2.79-3.88-5.58-5.81-8.38C727.88,143.43,727.62,142.93,727.09,142.07"/>
</g>
</svg>
